<mxfile host="app.diagrams.net" modified="2022-02-12T09:41:09.070Z" agent="5.0 (Windows NT 10.0; Win64; x64) AppleWebKit/537.36 (KHTML, like Gecko) Chrome/97.0.4692.99 Safari/537.36 OPR/83.0.4254.27" etag="QIFUUQF40lwuLATLUYYc" version="16.5.6" type="github">
  <diagram id="stnar7qjRKwQxVdh4WQ7" name="Page-1">
    <mxGraphModel dx="1780" dy="604" grid="1" gridSize="10" guides="1" tooltips="1" connect="1" arrows="1" fold="1" page="1" pageScale="1" pageWidth="827" pageHeight="1169" math="0" shadow="0">
      <root>
        <mxCell id="0" />
        <mxCell id="1" parent="0" />
        <mxCell id="-8d4zsUDrLA1Sn1y86np-3" style="edgeStyle=orthogonalEdgeStyle;rounded=0;orthogonalLoop=1;jettySize=auto;html=1;entryX=0.5;entryY=1;entryDx=0;entryDy=0;" edge="1" parent="1" source="-8d4zsUDrLA1Sn1y86np-1" target="-8d4zsUDrLA1Sn1y86np-2">
          <mxGeometry relative="1" as="geometry" />
        </mxCell>
        <mxCell id="-8d4zsUDrLA1Sn1y86np-13" style="edgeStyle=orthogonalEdgeStyle;rounded=0;orthogonalLoop=1;jettySize=auto;html=1;entryX=0;entryY=0.5;entryDx=0;entryDy=0;endArrow=block;endFill=1;" edge="1" parent="1" source="-8d4zsUDrLA1Sn1y86np-1" target="-8d4zsUDrLA1Sn1y86np-12">
          <mxGeometry relative="1" as="geometry" />
        </mxCell>
        <mxCell id="-8d4zsUDrLA1Sn1y86np-1" value="Klient" style="shape=umlActor;verticalLabelPosition=bottom;verticalAlign=top;html=1;outlineConnect=0;" vertex="1" parent="1">
          <mxGeometry x="40" y="320" width="30" height="60" as="geometry" />
        </mxCell>
        <mxCell id="-8d4zsUDrLA1Sn1y86np-9" style="edgeStyle=orthogonalEdgeStyle;rounded=0;orthogonalLoop=1;jettySize=auto;html=1;endArrow=block;endFill=1;dashed=1;" edge="1" parent="1" source="-8d4zsUDrLA1Sn1y86np-2" target="-8d4zsUDrLA1Sn1y86np-8">
          <mxGeometry relative="1" as="geometry" />
        </mxCell>
        <mxCell id="-8d4zsUDrLA1Sn1y86np-2" value="Zarezerwuj pokój" style="ellipse;whiteSpace=wrap;html=1;" vertex="1" parent="1">
          <mxGeometry x="5" y="240" width="100" height="50" as="geometry" />
        </mxCell>
        <mxCell id="-8d4zsUDrLA1Sn1y86np-5" style="edgeStyle=orthogonalEdgeStyle;rounded=0;orthogonalLoop=1;jettySize=auto;html=1;entryX=0.5;entryY=0;entryDx=0;entryDy=0;endArrow=block;endFill=0;" edge="1" parent="1" source="-8d4zsUDrLA1Sn1y86np-4" target="-8d4zsUDrLA1Sn1y86np-2">
          <mxGeometry relative="1" as="geometry" />
        </mxCell>
        <mxCell id="-8d4zsUDrLA1Sn1y86np-4" value="Strona internetowa" style="ellipse;whiteSpace=wrap;html=1;" vertex="1" parent="1">
          <mxGeometry x="5" y="160" width="100" height="50" as="geometry" />
        </mxCell>
        <mxCell id="-8d4zsUDrLA1Sn1y86np-7" style="edgeStyle=orthogonalEdgeStyle;rounded=0;orthogonalLoop=1;jettySize=auto;html=1;entryX=0;entryY=0.5;entryDx=0;entryDy=0;endArrow=block;endFill=0;" edge="1" parent="1" source="-8d4zsUDrLA1Sn1y86np-6" target="-8d4zsUDrLA1Sn1y86np-2">
          <mxGeometry relative="1" as="geometry" />
        </mxCell>
        <mxCell id="-8d4zsUDrLA1Sn1y86np-6" value="Telefon" style="ellipse;whiteSpace=wrap;html=1;" vertex="1" parent="1">
          <mxGeometry x="-95" y="160" width="100" height="50" as="geometry" />
        </mxCell>
        <mxCell id="-8d4zsUDrLA1Sn1y86np-8" value="Dostępność pokoju" style="ellipse;whiteSpace=wrap;html=1;" vertex="1" parent="1">
          <mxGeometry x="160" y="160" width="100" height="50" as="geometry" />
        </mxCell>
        <mxCell id="-8d4zsUDrLA1Sn1y86np-10" value="&amp;lt;&amp;lt;include&amp;gt;&amp;gt;" style="text;html=1;align=center;verticalAlign=middle;resizable=0;points=[];autosize=1;strokeColor=none;fillColor=none;" vertex="1" parent="1">
          <mxGeometry x="120" y="250" width="80" height="20" as="geometry" />
        </mxCell>
        <mxCell id="-8d4zsUDrLA1Sn1y86np-23" style="edgeStyle=orthogonalEdgeStyle;rounded=0;orthogonalLoop=1;jettySize=auto;html=1;entryX=0.5;entryY=1;entryDx=0;entryDy=0;endArrow=block;endFill=1;" edge="1" parent="1" source="-8d4zsUDrLA1Sn1y86np-11" target="-8d4zsUDrLA1Sn1y86np-18">
          <mxGeometry relative="1" as="geometry" />
        </mxCell>
        <mxCell id="-8d4zsUDrLA1Sn1y86np-25" style="edgeStyle=orthogonalEdgeStyle;rounded=0;orthogonalLoop=1;jettySize=auto;html=1;entryX=0.5;entryY=0;entryDx=0;entryDy=0;endArrow=block;endFill=1;" edge="1" parent="1" source="-8d4zsUDrLA1Sn1y86np-11" target="-8d4zsUDrLA1Sn1y86np-24">
          <mxGeometry relative="1" as="geometry" />
        </mxCell>
        <mxCell id="-8d4zsUDrLA1Sn1y86np-27" style="edgeStyle=orthogonalEdgeStyle;rounded=0;orthogonalLoop=1;jettySize=auto;html=1;entryX=1;entryY=0.5;entryDx=0;entryDy=0;endArrow=block;endFill=1;" edge="1" parent="1" source="-8d4zsUDrLA1Sn1y86np-11" target="-8d4zsUDrLA1Sn1y86np-26">
          <mxGeometry relative="1" as="geometry" />
        </mxCell>
        <mxCell id="-8d4zsUDrLA1Sn1y86np-11" value="Recepcjonista" style="shape=umlActor;verticalLabelPosition=bottom;verticalAlign=top;html=1;outlineConnect=0;" vertex="1" parent="1">
          <mxGeometry x="495" y="410" width="30" height="60" as="geometry" />
        </mxCell>
        <mxCell id="-8d4zsUDrLA1Sn1y86np-12" value="Pobierz kartę pobytu" style="ellipse;whiteSpace=wrap;html=1;" vertex="1" parent="1">
          <mxGeometry x="160" y="325" width="100" height="50" as="geometry" />
        </mxCell>
        <mxCell id="-8d4zsUDrLA1Sn1y86np-15" style="edgeStyle=orthogonalEdgeStyle;rounded=0;orthogonalLoop=1;jettySize=auto;html=1;entryX=1;entryY=0.5;entryDx=0;entryDy=0;endArrow=block;endFill=1;dashed=1;" edge="1" parent="1" source="-8d4zsUDrLA1Sn1y86np-14" target="-8d4zsUDrLA1Sn1y86np-12">
          <mxGeometry relative="1" as="geometry" />
        </mxCell>
        <mxCell id="-8d4zsUDrLA1Sn1y86np-14" value="Aktualizuj dane karty" style="ellipse;whiteSpace=wrap;html=1;" vertex="1" parent="1">
          <mxGeometry x="330" y="325" width="100" height="50" as="geometry" />
        </mxCell>
        <mxCell id="-8d4zsUDrLA1Sn1y86np-16" value="&amp;lt;&amp;lt;extend&amp;gt;&amp;gt;" style="text;html=1;align=center;verticalAlign=middle;resizable=0;points=[];autosize=1;strokeColor=none;fillColor=none;" vertex="1" parent="1">
          <mxGeometry x="260" y="330" width="80" height="20" as="geometry" />
        </mxCell>
        <mxCell id="-8d4zsUDrLA1Sn1y86np-20" style="edgeStyle=orthogonalEdgeStyle;rounded=0;orthogonalLoop=1;jettySize=auto;html=1;entryX=0.5;entryY=0;entryDx=0;entryDy=0;endArrow=block;endFill=1;" edge="1" parent="1" source="-8d4zsUDrLA1Sn1y86np-17" target="-8d4zsUDrLA1Sn1y86np-14">
          <mxGeometry relative="1" as="geometry" />
        </mxCell>
        <mxCell id="-8d4zsUDrLA1Sn1y86np-21" style="edgeStyle=orthogonalEdgeStyle;rounded=0;orthogonalLoop=1;jettySize=auto;html=1;entryX=1;entryY=0.5;entryDx=0;entryDy=0;endArrow=block;endFill=1;" edge="1" parent="1" source="-8d4zsUDrLA1Sn1y86np-17" target="-8d4zsUDrLA1Sn1y86np-8">
          <mxGeometry relative="1" as="geometry" />
        </mxCell>
        <mxCell id="-8d4zsUDrLA1Sn1y86np-22" style="edgeStyle=orthogonalEdgeStyle;rounded=0;orthogonalLoop=1;jettySize=auto;html=1;entryX=0.5;entryY=0;entryDx=0;entryDy=0;endArrow=block;endFill=1;" edge="1" parent="1" source="-8d4zsUDrLA1Sn1y86np-17" target="-8d4zsUDrLA1Sn1y86np-18">
          <mxGeometry relative="1" as="geometry" />
        </mxCell>
        <mxCell id="-8d4zsUDrLA1Sn1y86np-17" value="System" style="shape=umlActor;verticalLabelPosition=bottom;verticalAlign=top;html=1;outlineConnect=0;" vertex="1" parent="1">
          <mxGeometry x="365" y="155" width="30" height="60" as="geometry" />
        </mxCell>
        <mxCell id="-8d4zsUDrLA1Sn1y86np-18" value="Aktualizuj system" style="ellipse;whiteSpace=wrap;html=1;" vertex="1" parent="1">
          <mxGeometry x="460" y="325" width="100" height="50" as="geometry" />
        </mxCell>
        <mxCell id="-8d4zsUDrLA1Sn1y86np-24" value="Wydaj kartę pobytu" style="ellipse;whiteSpace=wrap;html=1;" vertex="1" parent="1">
          <mxGeometry x="460" y="520" width="100" height="50" as="geometry" />
        </mxCell>
        <mxCell id="-8d4zsUDrLA1Sn1y86np-26" value="Generuj kartę pobytu" style="ellipse;whiteSpace=wrap;html=1;" vertex="1" parent="1">
          <mxGeometry x="330" y="415" width="100" height="50" as="geometry" />
        </mxCell>
        <mxCell id="-8d4zsUDrLA1Sn1y86np-29" style="edgeStyle=orthogonalEdgeStyle;rounded=0;orthogonalLoop=1;jettySize=auto;html=1;endArrow=block;endFill=0;entryX=0.5;entryY=1;entryDx=0;entryDy=0;" edge="1" parent="1" source="-8d4zsUDrLA1Sn1y86np-28" target="-8d4zsUDrLA1Sn1y86np-26">
          <mxGeometry relative="1" as="geometry">
            <mxPoint x="380" y="470" as="targetPoint" />
          </mxGeometry>
        </mxCell>
        <mxCell id="-8d4zsUDrLA1Sn1y86np-28" value="Dodaj dane klienta" style="ellipse;whiteSpace=wrap;html=1;" vertex="1" parent="1">
          <mxGeometry x="330" y="500" width="100" height="50" as="geometry" />
        </mxCell>
        <mxCell id="-8d4zsUDrLA1Sn1y86np-31" style="edgeStyle=orthogonalEdgeStyle;rounded=0;orthogonalLoop=1;jettySize=auto;html=1;entryX=0;entryY=0.5;entryDx=0;entryDy=0;endArrow=block;endFill=0;" edge="1" parent="1" source="-8d4zsUDrLA1Sn1y86np-30" target="-8d4zsUDrLA1Sn1y86np-26">
          <mxGeometry relative="1" as="geometry" />
        </mxCell>
        <mxCell id="-8d4zsUDrLA1Sn1y86np-30" value="Dodaj termin" style="ellipse;whiteSpace=wrap;html=1;" vertex="1" parent="1">
          <mxGeometry x="260" y="550" width="100" height="50" as="geometry" />
        </mxCell>
        <mxCell id="-8d4zsUDrLA1Sn1y86np-33" style="edgeStyle=orthogonalEdgeStyle;rounded=0;orthogonalLoop=1;jettySize=auto;html=1;entryX=0.5;entryY=1;entryDx=0;entryDy=0;endArrow=block;endFill=1;dashed=1;" edge="1" parent="1" source="-8d4zsUDrLA1Sn1y86np-32" target="-8d4zsUDrLA1Sn1y86np-14">
          <mxGeometry relative="1" as="geometry">
            <Array as="points">
              <mxPoint x="190" y="410" />
              <mxPoint x="380" y="410" />
            </Array>
          </mxGeometry>
        </mxCell>
        <mxCell id="-8d4zsUDrLA1Sn1y86np-32" value="Dodaj termin" style="ellipse;whiteSpace=wrap;html=1;" vertex="1" parent="1">
          <mxGeometry x="140" y="550" width="100" height="50" as="geometry" />
        </mxCell>
        <mxCell id="-8d4zsUDrLA1Sn1y86np-34" value="&amp;lt;&amp;lt;extend&amp;gt;&amp;gt;" style="text;html=1;align=center;verticalAlign=middle;resizable=0;points=[];autosize=1;strokeColor=none;fillColor=none;" vertex="1" parent="1">
          <mxGeometry x="300" y="395" width="80" height="20" as="geometry" />
        </mxCell>
        <mxCell id="-8d4zsUDrLA1Sn1y86np-39" style="edgeStyle=orthogonalEdgeStyle;rounded=0;orthogonalLoop=1;jettySize=auto;html=1;entryX=0.5;entryY=1;entryDx=0;entryDy=0;endArrow=block;endFill=0;" edge="1" parent="1" source="-8d4zsUDrLA1Sn1y86np-35" target="-8d4zsUDrLA1Sn1y86np-36">
          <mxGeometry relative="1" as="geometry" />
        </mxCell>
        <mxCell id="-8d4zsUDrLA1Sn1y86np-35" value="Zamów jedzenie do pokoju" style="ellipse;whiteSpace=wrap;html=1;" vertex="1" parent="1">
          <mxGeometry x="40" y="550" width="100" height="50" as="geometry" />
        </mxCell>
        <mxCell id="-8d4zsUDrLA1Sn1y86np-37" style="edgeStyle=orthogonalEdgeStyle;rounded=0;orthogonalLoop=1;jettySize=auto;html=1;entryX=0.456;entryY=0.989;entryDx=0;entryDy=0;entryPerimeter=0;dashed=1;endArrow=block;endFill=1;" edge="1" parent="1" source="-8d4zsUDrLA1Sn1y86np-36" target="-8d4zsUDrLA1Sn1y86np-14">
          <mxGeometry relative="1" as="geometry">
            <Array as="points">
              <mxPoint x="90" y="390" />
              <mxPoint x="376" y="390" />
            </Array>
          </mxGeometry>
        </mxCell>
        <mxCell id="-8d4zsUDrLA1Sn1y86np-36" value="Dodatkowe usługi" style="ellipse;whiteSpace=wrap;html=1;" vertex="1" parent="1">
          <mxGeometry x="40" y="465" width="100" height="50" as="geometry" />
        </mxCell>
        <mxCell id="-8d4zsUDrLA1Sn1y86np-38" value="&amp;lt;&amp;lt;extend&amp;gt;&amp;gt;" style="text;html=1;align=center;verticalAlign=middle;resizable=0;points=[];autosize=1;strokeColor=none;fillColor=none;" vertex="1" parent="1">
          <mxGeometry x="285" y="375" width="80" height="20" as="geometry" />
        </mxCell>
      </root>
    </mxGraphModel>
  </diagram>
</mxfile>
